<?xml version="1.0" encoding="UTF-8"?>
<svg id="a" data-name="Layer 1" xmlns="http://www.w3.org/2000/svg" width="1191.36" height="114.62" viewBox="0 0 1191.36 114.62">
  <path d="M39.8,21.38h33.46l38.73,72.19h-31.69l-5.69-12.35h-36.15l-5.69,12.35H1.07L39.8,21.38ZM46.62,63.59h19.82l-9.88-21.32-9.94,21.32Z" fill="#ec2027"/>
  <path d="M177.73,21.27h28.2v38.78c.11,27.29-22.24,35.13-49.31,35.18-27.07-.05-49.41-7.9-49.31-35.18V21.27h28.14v37.01c-.11,11.87,9.61,13.91,21.16,14.07,11.49-.16,21.27-2.2,21.11-14.07V21.27Z" fill="#ec2027"/>
  <path d="M248.68,93.56v-49.31h-33.46v-22.88h95.07v22.88h-33.46v49.31h-28.14Z" fill="#ec2027"/>
  <path d="M347.83,21.27v72.19h-28.15V21.27h28.15Z" fill="#ec2027"/>
  <path d="M404.98,49.2c20.14,1.02,48.45,2.42,48.39,20.52,0,20.62-23.63,25.51-48.98,25.51-25.3-.05-46.3-3.12-48.98-25.51h29.49c3.22,5.59,10.69,7.04,19.5,7.04s19.5-1.45,19.5-7.04c0-3.17-8.75-3.65-20.09-4.19-20.14-1.02-48.45-2.42-48.39-20.46,0-20.62,23.63-25.57,48.98-25.57,25.3.16,46.3,3.01,48.98,25.57h-29.49c-3.22-5.69-10.69-7.04-19.5-7.04s-19.5,1.29-19.5,7.04c0,3.17,8.75,3.6,20.09,4.14Z" fill="#ec2027"/>
  <path d="M460.89,21.27h35.23l28.14,36.09,28.2-36.09h35.18v72.19h-28.14v-38.51l-28.2,38.51h-14.07l-28.2-38.51v38.51h-28.14V21.27Z" fill="#ec2027"/>
  <path d="M741.96,63.54c-1.77,24.38-23.15,31.69-49.15,31.69-27.07-.05-49.41-7.9-49.31-35.23v-5.26c-.11-27.29,22.24-35.13,49.31-35.23,26,.05,47.37,7.36,49.15,31.69h-28.84c-2.63-7.09-10.63-8.75-20.3-8.75-11.49.16-21.27,2.2-21.11,14.07v1.77c-.16,11.76,9.61,13.91,21.11,14.07,9.67,0,17.72-1.72,20.3-8.81h28.84Z" fill="#ec2027"/>
  <path d="M778.49,21.27v49.31h56.34v22.88h-84.49V21.27h28.14Z" fill="#ec2027"/>
  <path d="M872.48,21.27v72.19h-28.14V21.27h28.14Z" fill="#ec2027"/>
  <path d="M887.41,21.38h84.49v18.48h-56.34v9.24h56.34v16.7h-56.34v9.24h56.34v18.53h-84.49V21.38Z" fill="#ec2027"/>
  <path d="M1057.25,21.27h28.2v72.19h-31.69l-38.78-44.1v44.1h-28.14V21.27h38.73l31.69,38.24V21.27Z" fill="#ec2027"/>
  <path d="M1128.68,93.56v-49.31h-33.46v-22.88h95.07v22.88h-33.46v49.31h-28.14Z" fill="#ec2027"/>
</svg>