<?xml version="1.0" encoding="UTF-8"?>
<svg id="Layer_1" xmlns="http://www.w3.org/2000/svg" version="1.1" viewBox="0 0 500 500">
  <!-- Generator: Adobe Illustrator 30.2.1, SVG Export Plug-In . SVG Version: 2.1.1 Build 1)  -->
  <defs>
    <style>
      .st0 {
        fill: #ec2027;
        stroke: #ec2027;
        stroke-miterlimit: 10;
        stroke-width: 40px;
      }
    </style>
  </defs>
  <g id="_x35_3">
    <path class="st0" d="M474.1,289.8c-28.2-5.4-59.1-10.9-83.3-28.5-6.7-12.2,4-23.1,12.1-32.6,20.2-28.5,36.3-54.3,44.3-88.2,1.3-9.5-2.7-23.1-13.4-21.7-21.5,19-48.4,33.9-76.6,38-6.7,1.4-10.8-5.4-12.1-10.9-4-38-14.8-74.6-29.6-108.6-4-8.1-12.1-14.9-21.5-14.9-9.4,1.4-6.7,13.6-8.1,20.4-5.4,24.4-10.8,47.5-25.5,66.5-4,5.4-10.8,2.7-16.1,0-33.6-24.4-64.5-46.1-103.5-57-6.7-1.4-12.1,1.4-17.5,4.1-5.4,2.7-2.7,6.8-2.7,9.5,14.8,25.8,33.6,47.5,37.6,77.3,0,6.8-5.4,10.9-10.8,10.9-39,5.4-73.9,14.9-108.9,31.2-9.4,5.4-17.5,16.3-12.1,27.1,28.2,4.1,55.1,9.5,80.6,25.8,5.4,2.7,8.1,8.1,5.4,13.6-14.8,25.8-33.6,47.5-45.7,74.6-5.4,12.2-9.4,23.1-13.4,35.3-1.3,8.1,1.3,16.3,8.1,20.4,2.7,1.4,6.7,1.4,9.4-1.4,1.3-1.4,2.7-2.7,4-4.1,4-1.4,6.7-4.1,9.4-6.8,20.2-10.9,37.6-25.8,60.5-24.4,4,0,8.1,0,9.4,5.4,4,16.3,4,31.2,8.1,47.5,1.3,5.4,2.7,9.5,4,14.9,6.7,19,10.8,38,22.8,55.6,4,6.8,13.4,13.6,22.8,8.1,5.4-23.1,8.1-44.8,17.5-66.5,5.4-9.5,10.8-24.4,22.8-19,6.7,2.7,13.4,8.1,20.2,13.6,26.9,20.4,56.4,33.9,87.4,44.8,5.4,1.4,10.8,0,14.8-2.7,2.7-2.7,9.4-6.8,6.7-10.9-17.5-24.4-33.6-50.2-39-78.7,2.7-10.9,14.8-12.2,24.2-12.2,34.9-4.1,67.2-14.9,99.5-31.2,6.7-4.1,14.8-16.3,8.1-24.4Z"/>
  </g>
</svg>