<?xml version="1.0" encoding="UTF-8"?>
<svg id="Layer_1" xmlns="http://www.w3.org/2000/svg" version="1.1" viewBox="0 0 500 500">
  <!-- Generator: Adobe Illustrator 30.2.1, SVG Export Plug-In . SVG Version: 2.1.1 Build 1)  -->
  <defs>
    <style>
      .st0 {
        fill: #ec2027;
      }
    </style>
  </defs>
  <path class="st0" d="M384.7,70.7L318.8,4.8l-64.5,64.5L189.4,4.4l-65.4,65.4,65,65-47.9,47.9-65-65L10.7,183.1l65,65L11.1,312.6l65.8,65.8,64.5-64.5,48.2,48.2-64.5,64.5,65.8,65.8,64.5-64.5,65,65,65.4-65.4-65-65,47.9-47.9,65,65,65.4-65.4-65-65,64.5-64.5-65.8-65.8-64.5,64.5-48.2-48.2,64.5-64.5ZM302.9,248.8l-47.9,47.9-48.2-48.2,47.9-47.9,48.2,48.2Z"/>
</svg>