<?xml version="1.0" encoding="UTF-8"?>
<svg id="Layer_1" xmlns="http://www.w3.org/2000/svg" version="1.1" viewBox="0 0 500 500">
  <!-- Generator: Adobe Illustrator 30.2.1, SVG Export Plug-In . SVG Version: 2.1.1 Build 1)  -->
  <defs>
    <style>
      .st0 {
        stroke-width: 80px;
      }

      .st0, .st1 {
        fill: #ec2027;
        stroke: #ec2027;
        stroke-miterlimit: 10;
      }

      .st1 {
        stroke-width: 30px;
      }
    </style>
  </defs>
  <path class="st1" d="M267.1,22.2C127.4,13.3,11.7,128.6,20.6,267.9c7.4,115.1,100.7,208.1,216.2,215.4,139.7,8.9,255.4-106.4,246.5-245.6-7.4-115.1-100.7-208.1-216.2-215.4ZM266.1,468.4c-130.7,8.3-238.9-99.5-230.5-229.7,6.9-107.7,94.2-194.6,202.2-201.5,130.7-8.3,238.9,99.5,230.5,229.7-6.9,107.7-94.2,194.6-202.2,201.5Z"/>
  <path class="st0" d="M146.5,290.3v-75.1c0-5.3-5.8-8.7-10.5-6l-65.3,37.6c-4.6,2.7-4.6,9.4,0,12l65.3,37.6c4.6,2.7,10.5-.7,10.5-6Z"/>
  <path class="st0" d="M357.4,215.2v75.1c0,5.3,5.8,8.7,10.5,6l65.3-37.6c4.6-2.7,4.6-9.4,0-12l-65.3-37.6c-4.6-2.7-10.5.7-10.5,6Z"/>
  <path class="st0" d="M258,432.9l37.7-65c2.7-4.6-.7-10.4-6-10.4h-75.4c-5.4,0-8.7,5.8-6,10.4l37.7,65c2.7,4.6,9.4,4.6,12.1,0Z"/>
  <path class="st0" d="M214.3,147.3h75.4c5.4,0,8.7-5.8,6-10.4l-37.7-65c-2.7-4.6-9.4-4.6-12.1,0l-37.7,65c-2.7,4.6.7,10.4,6,10.4Z"/>
</svg>