<?xml version="1.0" encoding="UTF-8"?>
<svg id="Layer_1" xmlns="http://www.w3.org/2000/svg" version="1.1" viewBox="0 0 500 500">
  <!-- Generator: Adobe Illustrator 30.2.1, SVG Export Plug-In . SVG Version: 2.1.1 Build 1)  -->
  <defs>
    <style>
      .st0 {
        fill: #ec2027;
        stroke: #ec2027;
        stroke-miterlimit: 10;
        stroke-width: 20px;
      }
    </style>
  </defs>
  <path class="st0" d="M410.8,119.5V12H12.4v367.2h76.3v107.5h398.4V119.5h-76.3ZM471.9,193.2H103.8v-59.7h368.1v59.7ZM395.6,25.9v59l-368.1.7V25.9h368.1ZM27.5,365.2V99.6l368.1-.7v20.6H88.6v245.7H27.5ZM103.8,472.7V207.1h368.1v265.6H103.8Z"/>
  <path class="st0" d="M139,176.8c10.2,1.4,18.9-6.5,17.3-15.9-1-5.9-6.2-10.6-12.5-11.5-10.2-1.4-18.9,6.5-17.3,15.9,1,5.9,6.2,10.6,12.5,11.5Z"/>
  <path class="st0" d="M183.3,176.8c10.2,1.4,18.9-6.5,17.3-15.9-1-5.9-6.2-10.6-12.5-11.5-10.2-1.4-18.9,6.5-17.3,15.9,1,5.9,6.2,10.6,12.5,11.5Z"/>
  <path class="st0" d="M229.5,176.8c10.2,1.4,18.9-6.5,17.3-15.9-1-5.9-6.2-10.6-12.5-11.5-10.2-1.4-18.9,6.5-17.3,15.9,1,5.9,6.2,10.6,12.5,11.5Z"/>
  <path class="st0" d="M62.7,69.3c10.2,1.4,18.9-6.5,17.3-15.9-1-5.9-6.2-10.6-12.5-11.5-10.2-1.4-18.9,6.5-17.3,15.9,1,5.9,6.2,10.6,12.5,11.5Z"/>
  <path class="st0" d="M107.1,69.3c10.2,1.4,18.9-6.5,17.3-15.9-1-5.9-6.2-10.6-12.5-11.5-10.2-1.4-18.9,6.5-17.3,15.9,1,5.9,6.2,10.6,12.5,11.5Z"/>
  <path class="st0" d="M153.2,69.3c10.2,1.4,18.9-6.5,17.3-15.9-1-5.9-6.2-10.6-12.5-11.5-10.2-1.4-18.9,6.5-17.3,15.9,1,5.9,6.2,10.6,12.5,11.5Z"/>
</svg>