<?xml version="1.0" encoding="UTF-8"?>
<svg id="Layer_1" xmlns="http://www.w3.org/2000/svg" version="1.1" viewBox="0 0 500 500">
  <!-- Generator: Adobe Illustrator 30.2.1, SVG Export Plug-In . SVG Version: 2.1.1 Build 1)  -->
  <defs>
    <style>
      .st0 {
        fill: #ec2027;
        stroke: #ec2027;
        stroke-miterlimit: 10;
        stroke-width: 20px;
      }
    </style>
  </defs>
  <path class="st0" d="M385,288c-7,3.9-15.6,2.7-21.2-3l-34.9-35.5,35.5-36c5.6-5.7,14.3-6.9,21.2-3,25.5,14.3,58.3,10.4,79.9-11.5,27.1-27.5,26.2-72.7-2.6-99-25.9-23.6-66.3-22.9-91.4,1.6-22.5,22-26.6,55.8-12.3,82.1,3.8,7,2.7,15.8-2.9,21.5l-35.5,36-65.9-66.9v-.5h-.6v-12c0-8.1,5.3-15.1,12.9-17.3,28-8.2,48.5-34.4,48.5-65.5S283.4,8.8,244.6,10.9c-34.8,1.9-62.9,31.4-63.6,66.7-.6,31.7,20.1,58.5,48.5,66.9,7.6,2.2,12.9,9.3,12.9,17.3v12l-65.9,66.9-34.9-35.5c-5.6-5.7-6.8-14.4-2.9-21.5,14.3-26.3,10.2-60.1-12.3-82.1-25.1-24.5-65.6-25.2-91.4-1.6-28.9,26.4-29.7,71.5-2.6,99,21.6,22,54.4,25.8,79.9,11.5,7-3.9,15.6-2.7,21.2,3l34.9,35.5-35.5,36c-5.6,5.7-14.3,6.9-21.2,3-25.5-14.3-58.2-10.4-79.9,11.5-27.1,27.5-26.2,72.7,2.6,99,25.9,23.6,66.3,22.9,91.4-1.6,22.5-22,26.6-55.8,12.3-82.1-3.8-7-2.7-15.8,2.9-21.5l35.5-36,65.9,66.9v.5h.6v12c0,8.1-5.3,15.1-12.9,17.3-28,8.2-48.5,34.4-48.5,65.5s32.1,70.2,70.9,68.1c34.8-1.9,62.9-31.4,63.6-66.7.6-31.7-20.1-58.5-48.5-66.9-7.6-2.2-12.9-9.3-12.9-17.3v-12l65.9-66.9,34.9,35.5c5.6,5.7,6.8,14.4,2.9,21.5-14.3,26.3-10.2,60.1,12.3,82.1,25.1,24.5,65.6,25.2,91.4,1.6,28.9-26.4,29.7-71.5,2.6-99-21.6-22-54.4-25.8-79.9-11.5ZM242.4,307.6l-57.7-58.6,57.7-58.6v117.2ZM254.6,308.2v-117.2l57.7,58.6-57.7,58.6Z"/>
</svg>