<?xml version="1.0" encoding="UTF-8"?>
<svg id="Layer_1" xmlns="http://www.w3.org/2000/svg" version="1.1" viewBox="0 0 500 500">
  <!-- Generator: Adobe Illustrator 30.2.1, SVG Export Plug-In . SVG Version: 2.1.1 Build 1)  -->
  <defs>
    <style>
      .st0 {
        fill: #ec2027;
        stroke: #ec2027;
        stroke-miterlimit: 10;
        stroke-width: 40px;
      }
    </style>
  </defs>
  <g id="_x33_1">
    <path class="st0" d="M250.2,29.6c-125.9,0-228.3,99.6-228.3,221.9s102.4,221.9,228.3,221.9,228.3-99.6,228.3-221.9S376.1,29.6,250.2,29.6ZM250.2,41.1c116,0,210.9,89.1,216.2,200.5-23.3-22-110.3-96.8-216.2-96.8S57.3,219.6,34,241.7c5.3-111.5,100.3-200.5,216.2-200.5ZM459.8,251.6c-19.5,18.4-106.7,95.1-209.6,95.1S60.1,270,40.6,251.6c19.5-18.4,106.7-95.1,209.6-95.1s190.1,76.7,209.6,95.1ZM250.2,462c-116,0-210.9-89.1-216.2-200.5,23.3,22,110.3,96.8,216.2,96.8s192.9-74.7,216.2-96.8c-5.3,111.5-100.3,200.5-216.2,200.5Z"/>
    <path class="st0" d="M214.8,251.6c0,19,15.9,34.4,35.4,34.4s35.4-15.4,35.4-34.4-15.9-34.4-35.4-34.4-35.4,15.4-35.4,34.4Z"/>
  </g>
</svg>