<?xml version="1.0" encoding="UTF-8"?>
<svg id="Layer_1" xmlns="http://www.w3.org/2000/svg" version="1.1" viewBox="0 0 500 500">
  <!-- Generator: Adobe Illustrator 30.2.1, SVG Export Plug-In . SVG Version: 2.1.1 Build 1)  -->
  <defs>
    <style>
      .st0 {
        fill: #ec2027;
        stroke: #ec2027;
        stroke-miterlimit: 10;
        stroke-width: 30px;
      }
    </style>
  </defs>
  <path class="st0" d="M484.3,246.9c0-60.4-46-110-104.9-115.7l47.5-47.5-5.1-5.4c-.3-.3-.6-.6-.9-1-46.3-46.3-120.5-48.2-169.2-5.8V15.4c-.4,0-.7,0-1.1,0-60.4,0-110,46-115.7,104.9l-47.5-47.5-5.4,5.1c-.3.3-.6.6-.9.9l5.4,5.5-5.4-5.5h0c-23.4,23.4-36.3,54.6-36.3,87.7s10.8,58.9,30.5,81.5H19.1c0,.4,0,.7,0,1.1,0,60.4,46,110,104.9,115.7l-47.5,47.5,5.1,5.4c.3.3.6.6.9,1,24.2,24.2,55.9,36.3,87.7,36.3s58.2-10.2,81.5-30.5v56.1c.4,0,.7,0,1.1,0,60.4,0,110-46,115.7-104.9l47.5,47.5,5.4-5.1c.3-.3.6-.6,1-.9,46.3-46.3,48.2-120.5,5.8-169.2h56.1c0-.4,0-.7,0-1.1ZM256.4,88.2c21.2-21.2,49-31.8,76.8-31.8s51.5,9.1,72,27.2l-47.4,47.4c-56,4.9-100.6,49.5-105.5,105.5l-.3.3c0,0,0-.1-.1-.2V93.2c1.5-1.7,3-3.4,4.7-5ZM91.9,243.3c-20.5-20.5-31.8-47.8-31.8-76.8s9.6-52.1,27.3-72l47.4,47.4c4.9,56,49.5,100.6,105.5,105.5l.3.3c0,0-.1,0-.2.1H96.9c-1.7-1.5-3.4-3.1-5-4.7ZM247,407.8c-40.8,40.8-106.2,42.3-148.8,4.5l47.4-47.4c56-4.9,100.6-49.5,105.5-105.5l.3-.3c0,0,0,.1.1.2v143.6c-1.5,1.7-3.1,3.4-4.7,5ZM411.5,252.7c40.8,40.8,42.3,106.2,4.5,148.8l-47.4-47.4c-4.9-56-49.5-100.6-105.5-105.5l-.3-.3c0,0,.1,0,.2-.1h143.6c1.7,1.5,3.4,3.1,5,4.7Z"/>
</svg>