<?xml version="1.0" encoding="UTF-8"?>
<svg id="Layer_1" xmlns="http://www.w3.org/2000/svg" version="1.1" viewBox="0 0 500 500">
  <!-- Generator: Adobe Illustrator 30.2.1, SVG Export Plug-In . SVG Version: 2.1.1 Build 1)  -->
  <defs>
    <style>
      .st0 {
        fill: #ec2027;
      }
    </style>
  </defs>
  <g id="_x30_9">
    <path class="st0" d="M189.9,357.2c19.8-5.5,40.5-8.4,61.3-8.4s39.5,2.6,58.4,7.6c10.8-29.2,17.3-61.6,18.5-94.9h-156.8c1.2,33.8,7.6,66.4,18.5,95.7Z"/>
    <path class="st0" d="M248.3,130.4c17.9,0,35.7-2.4,52.7-7.2-13.2-28.2-30.6-52.7-51.3-71.5-21,18.4-38.6,43.3-51.9,72.1,16.4,4.3,33.3,6.6,50.4,6.6Z"/>
    <path class="st0" d="M217.8,51.5c-33.2,5.3-63.8,18.9-89.5,38.5,14.6,11.1,30.6,20.1,47.5,26.7,11.1-24.6,25.3-46.8,42-65.2Z"/>
    <path class="st0" d="M351.5,238.2h98.9c-3-52.8-26.6-100.2-62.8-134.4-16.5,13.4-35.5,24.4-55.9,32.6,11.7,31.4,18.6,66.1,19.8,101.8Z"/>
    <path class="st0" d="M167.5,137c-20.3-7.8-39.4-18.5-56.7-32-35.5,34.1-58.6,81-61.6,133.2h98.9c1.2-35.4,8-69.9,19.4-101.2Z"/>
    <path class="st0" d="M369.7,88.8c-25.5-19.1-55.7-32.3-88.5-37.4,16.6,18.4,30.7,40.2,41.9,64.4,16.6-6.8,32.3-15.8,46.7-26.9Z"/>
    <path class="st0" d="M309.7,143.9c-19.3,5.5-39.5,8.4-59.9,8.4s-40.7-2.7-60.2-8.1c-10.6,28.9-16.9,61-18.2,94h156.8c-1.2-33.3-7.7-65.3-18.5-94.3Z"/>
    <path class="st0" d="M148.1,261.5H49.2c3.1,52.9,26.7,100.4,63.1,134.6,17.1-13.3,36-23.9,56.1-31.7-11.9-31.7-19-66.7-20.3-102.9Z"/>
    <path class="st0" d="M249.8.7C112.2.7.6,112.3.6,249.8s111.5,249.1,249.1,249.1,249.1-111.5,249.1-249.1S387.4.7,249.8.7ZM402.2,414.3c-.3,1.6-1.1,3.2-2.4,4.5-2.6,1.7-4.6,2.9-6.8,3.6-38.5,32-87.9,51.4-141.8,51.7-.5,0-.9,0-1.4,0-54.9,0-105.2-19.8-144.2-52.6-.6-.4-1.3-1-1.8-1.6-47.9-41.1-78.2-102.1-78.2-170.1C25.5,126.1,126,25.6,249.8,25.6s224.2,100.5,224.2,224.2-27.7,123.5-71.9,164.4Z"/>
    <path class="st0" d="M281.7,448.2c32.5-5.2,62.4-18.3,87.8-37.2-14.4-10.9-30-19.7-46.5-26.3-11,23.9-24.9,45.5-41.3,63.5Z"/>
    <path class="st0" d="M331.7,363.5c20.3,7.6,39.5,18.2,56.8,31.4,35.6-34.1,58.8-81.1,61.8-133.4h-98.9c-1.2,35.7-8.1,70.5-19.7,102Z"/>
    <path class="st0" d="M249.8,370.7c-17.5,0-34.7,2.3-51.4,6.8,13,27.7,30.3,51.8,51.4,70.4,20.6-18.1,37.9-42.3,51.1-70.4-16.6-4.4-33.7-6.7-51.1-6.7Z"/>
    <path class="st0" d="M130,411c25.5,19,55.6,32.1,88.3,37.3-16.4-18.2-30.4-39.7-41.5-63.6-16.6,6.6-32.3,15.4-46.8,26.4Z"/>
  </g>
</svg>